<?xml version="1.0" encoding="utf-8"?>
<!-- Generator: Adobe Illustrator 18.0.0, SVG Export Plug-In . SVG Version: 6.00 Build 0)  -->
<!DOCTYPE svg PUBLIC "-//W3C//DTD SVG 1.1//EN" "http://www.w3.org/Graphics/SVG/1.1/DTD/svg11.dtd">
<svg version="1.1" id="Layer_1" xmlns="http://www.w3.org/2000/svg" xmlns:xlink="http://www.w3.org/1999/xlink" x="0px" y="0px"
	 viewBox="0 0 75 75" enable-background="new 0 0 75 75" xml:space="preserve">
<path fill="#FFFFFF" d="M24,49.5l-3.1,3.7c3.8,3.4,7.8,5.6,12.3,6.5v-4.6C29.9,54,27,52.2,24,49.5z"/>
<path fill="#FFFFFF" d="M40.1,71.2v-11c8.2-0.4,14-5.3,14-12.5v-0.1c0-6.7-4.6-10.4-14.4-12.5c-9.7-2.1-12-4.4-12-8.6v-0.1
	c0-4,3.7-7.1,9.4-7.1c0.8,0,1.4,0.1,2.1,0.1V3.7c17.9,0.9,32.2,15.7,32.2,33.8C71.4,55.4,57.6,70,40.1,71.2z M36.7,55.6v4.5v11.3
	C18.4,70.9,3.6,55.9,3.6,37.5c0-18.1,14.2-32.9,32.2-33.8v11.2c-7.6,0.5-13.1,5.5-13.1,12V27c0,7.3,4.6,10.6,14.9,12.8
	C46.8,41.7,49,44,49,48.1v0.1c0,4.4-3.9,7.5-9.8,7.5C38.3,55.7,37.5,55.7,36.7,55.6z M37.5,0.2C16.9,0.2,0.2,17,0.2,37.5
	c0,20.6,16.7,37.3,37.3,37.3c20.6,0,37.3-16.7,37.3-37.3C74.8,16.9,58.1,0.2,37.5,0.2z"/>
<path fill="#FFFFFF" d="M49.9,24.1l2.9-3.8c-3.1-2.5-6.3-4.1-10.1-4.9v4.8C45.1,20.8,47.5,22.1,49.9,24.1z"/>
</svg>
