<?xml version="1.0" encoding="utf-8"?>
<!-- Generator: Adobe Illustrator 18.0.0, SVG Export Plug-In . SVG Version: 6.00 Build 0)  -->
<!DOCTYPE svg PUBLIC "-//W3C//DTD SVG 1.1//EN" "http://www.w3.org/Graphics/SVG/1.1/DTD/svg11.dtd">
<svg version="1.1" id="Layer_1" xmlns="http://www.w3.org/2000/svg" xmlns:xlink="http://www.w3.org/1999/xlink" x="0px" y="0px"
	 viewBox="0 0 75 75" enable-background="new 0 0 75 75" xml:space="preserve">
<path fill="#FFFFFF" d="M39.2,71.3V48.7l1.9-1.9c0,0-3.1-3.1-7.2,0l1.9,1.9v22.6C17.9,70.4,3.6,55.6,3.6,37.5S17.9,4.6,35.8,3.7
	v21.1c-9.5,0.9-16.4,7.3-16.4,7.4l2.3,2.5c0.6-0.6,15.7-14.6,31.6,0l2.3-2.5c-5.7-5.2-11.3-7.2-16.4-7.5v-21
	C57,4.6,71.3,19.4,71.3,37.5S57.1,70.4,39.2,71.3z M37.5,0.2C16.9,0.2,0.2,17,0.2,37.5c0,20.6,16.7,37.3,37.3,37.3
	c20.6,0,37.3-16.7,37.3-37.3C74.8,16.9,58.1,0.2,37.5,0.2z"/>
<path fill="#FFFFFF" d="M26.4,39.1l2.3,2.6c0.4-0.3,9.1-8.1,17.5,0l2.4-2.5C40.1,30.9,30.4,35.6,26.4,39.1z"/>
</svg>
