<?xml version="1.0" encoding="utf-8"?>
<!-- Generator: Adobe Illustrator 18.0.0, SVG Export Plug-In . SVG Version: 6.00 Build 0)  -->
<!DOCTYPE svg PUBLIC "-//W3C//DTD SVG 1.1//EN" "http://www.w3.org/Graphics/SVG/1.1/DTD/svg11.dtd">
<svg version="1.1" id="Layer_1" xmlns="http://www.w3.org/2000/svg" xmlns:xlink="http://www.w3.org/1999/xlink" x="0px" y="0px"
	 viewBox="0 0 75 75" enable-background="new 0 0 75 75" xml:space="preserve">
<path fill="#FFFFFF" d="M56.6,65.4v-2.7c0-4.1-2.1-7.8-5.3-9.9v-2.1c0-2.2,1.8-4.1,4-4.1h8.1c2.2,0,4.1,1.8,4.1,4.1v2.5
	C64.9,58.1,61.1,62.2,56.6,65.4z M7.6,53.2v-2.5c0-2.2,1.8-4.1,4.1-4.1h8.1c2.2,0,4.1,1.8,4.1,4.1v2.1c-3.2,2.1-5.3,5.8-5.3,9.9v2.7
	C13.9,62.2,10.1,58.1,7.6,53.2z M30.3,54.1h5.5v17.1c-5-0.2-9.7-1.6-13.9-3.8v-4.7C21.8,58,25.6,54.1,30.3,54.1z M53.4,67.4
	c-4.3,2.2-9.1,3.7-14.2,3.9V54.1h5.5c4.7,0,8.5,3.8,8.5,8.5v4.6L53.4,67.4L53.4,67.4z M35.8,3.7v29.2c-3.8,0.8-6.5,4.1-6.5,8.1
	c0,4.6,3.7,8.2,8.2,8.2s8.2-3.7,8.2-8.2c0-4-2.9-7.3-6.5-8.1V3.7c17.9,0.9,32.1,15.7,32.1,33.8c0,3.3-0.5,6.5-1.4,9.5
	c-1.3-2.3-3.8-3.8-6.5-3.8h-8.1c-4.1,0-7.4,3.4-7.4,7.4v0.5c-1-0.3-2.1-0.4-3.1-0.4H30.5c-1.1,0-2.2,0.1-3.1,0.4v-0.5
	c0-4.1-3.4-7.4-7.4-7.4h-8.1c-2.8,0-5.2,1.6-6.5,3.8c-0.9-3-1.4-6.2-1.4-9.5C3.7,19.4,17.9,4.6,35.8,3.7z M37.5,36.1
	c2.7,0,4.9,2.2,4.9,4.9c0,2.7-2.2,4.9-4.9,4.9s-4.9-2.2-4.9-4.9C32.6,38.3,34.8,36.1,37.5,36.1z M37.5,0.3C17,0.3,0.3,16.9,0.3,37.5
	s16.6,37.2,37.2,37.2s37.2-16.6,37.2-37.2S58,0.3,37.5,0.3z"/>
<path fill="#FFFFFF" d="M59.3,28.7c2.7,0,4.9,2.2,4.9,4.9c0,2.7-2.2,4.9-4.9,4.9c-2.7,0-4.9-2.2-4.9-4.9
	C54.4,30.9,56.6,28.7,59.3,28.7z M59.3,41.9c4.6,0,8.2-3.7,8.2-8.2c0-4.6-3.7-8.3-8.2-8.3s-8.2,3.7-8.2,8.3
	C51.1,38.1,54.8,41.9,59.3,41.9z"/>
<path fill="#FFFFFF" d="M15.7,28.7c2.7,0,4.9,2.2,4.9,4.9c0,2.7-2.2,4.9-4.9,4.9s-4.9-2.2-4.9-4.9C10.8,30.9,13,28.7,15.7,28.7z
	 M15.7,41.9c4.6,0,8.3-3.7,8.3-8.2c0-4.6-3.7-8.3-8.3-8.3S7.4,29,7.4,33.6C7.4,38.1,11.1,41.9,15.7,41.9z"/>
</svg>
